<svg width="38" height="43" viewBox="0 0 38 43" fill="none" xmlns="http://www.w3.org/2000/svg">
<path d="M6.74194 17.2H7.35484V11.6714C7.35484 8.57597 8.58162 5.6073 10.7655 3.41848C12.9494 1.22968 15.9115 0 19 0C22.0885 0 25.0505 1.22968 27.2344 3.41848C29.4183 5.6073 30.6452 8.57597 30.6452 11.6714V17.2H31.2581C33.0461 17.2 34.761 17.9118 36.0253 19.1792C37.2897 20.4464 38 22.1651 38 23.9571V36.2429C38 38.0349 37.2897 39.7536 36.0253 41.0208C34.761 42.2882 33.0461 43 31.2581 43H6.74194C4.95398 43 3.23907 42.2882 1.97477 41.0208C0.710232 39.7536 0 38.0349 0 36.2429V23.9571C0 22.1651 0.710232 20.4464 1.97477 19.1792C3.23907 17.9118 4.95398 17.2 6.74194 17.2ZM26.9677 11.6714C26.9677 9.55349 26.1283 7.5223 24.6341 6.02467C23.1398 4.52706 21.1133 3.68571 19 3.68571C16.8867 3.68571 14.8602 4.52706 13.3659 6.02467C11.8717 7.5223 11.0323 9.55349 11.0323 11.6714V17.2H26.9677V11.6714ZM3.67742 36.2429C3.67742 37.0574 4.0003 37.8388 4.57495 38.4147C5.14961 38.9907 5.92923 39.3143 6.74194 39.3143H31.2581C32.0708 39.3143 32.8503 38.9907 33.425 38.4147C33.9997 37.8388 34.3226 37.0574 34.3226 36.2429V23.9571C34.3226 23.1426 33.9997 22.3612 33.425 21.7853C32.8503 21.2093 32.0708 20.8857 31.2581 20.8857H6.74194C5.92923 20.8857 5.14961 21.2093 4.57495 21.7853C4.0003 22.3612 3.67742 23.1426 3.67742 23.9571V36.2429Z" fill="white"/>
</svg>
